<svg xmlns="http://www.w3.org/2000/svg" x="0px" y="0px"
width="64" height="64"
viewBox="0 0 172 172"
style=" fill:#000000;"><g fill="none" fill-rule="nonzero" stroke="none" stroke-width="1" stroke-linecap="butt" stroke-linejoin="miter" stroke-miterlimit="10" stroke-dasharray="" stroke-dashoffset="0" font-family="none" font-weight="none" font-size="none" text-anchor="none" style="mix-blend-mode: normal"><path d="M0,172v-172h172v172z" fill="none"></path><g fill="#007bff"><path d="M70.14375,97.69063c-2.15,-0.5375 -4.3,0.80625 -4.8375,2.95625l-13.4375,53.75c-0.40312,1.88125 0.40313,3.7625 2.15,4.56875c0.5375,0.26875 1.075,0.40312 1.74687,0.40312c1.20938,0 2.41875,-0.5375 3.225,-1.6125l52.27188,-71.4875c0.94062,-1.20937 1.075,-2.82187 0.40312,-4.16562c-0.67187,-1.34375 -2.01562,-2.15 -3.62812,-2.15h-22.0375l12.49688,-62.48437c0,0 0,0 0,-0.13437c0,-0.13438 0,-0.26875 0,-0.5375c0,-0.13437 0,-0.26875 0,-0.26875c0,-0.13437 0,-0.26875 0,-0.40312c0,-0.13438 0,-0.26875 0,-0.40313c0,-0.13437 -0.13438,-0.26875 -0.13438,-0.40313c0,-0.13437 -0.13437,-0.26875 -0.13437,-0.40313c0,-0.13437 -0.13437,-0.26875 -0.13437,-0.40313c0,-0.13437 -0.13437,-0.26875 -0.13437,-0.26875c-0.13437,-0.13437 -0.13437,-0.26875 -0.26875,-0.26875c-0.13437,-0.13437 -0.13437,-0.13437 -0.26875,-0.26875c-0.13437,-0.13437 -0.13437,-0.13437 -0.26875,-0.26875c-0.13438,0 -0.26875,-0.13438 -0.40313,-0.13438c0,0 0,0 -0.13437,0c-0.13437,0 -0.13437,-0.13437 -0.26875,-0.13437c-0.13437,0 -0.26875,-0.13438 -0.40312,-0.13438c-0.13437,0 -0.26875,-0.13437 -0.40313,-0.13437c-0.13437,0 -0.13437,0 -0.26875,-0.13438c0,0 0,0 -0.13437,0c-0.13437,0 -0.26875,0 -0.40313,0c-0.13437,0 -0.26875,0 -0.40312,0c-0.13437,0 -0.26875,0 -0.40313,0c-0.13437,0 -0.26875,0 -0.40312,0c-0.13437,0 -0.26875,0.13438 -0.40313,0.13438c-0.13437,0 -0.26875,0 -0.26875,0.13437c-0.13437,0 -0.26875,0.13438 -0.40313,0.26875c-0.13437,0 -0.13437,0.13438 -0.26875,0.13438c-0.13437,0.13438 -0.26875,0.13438 -0.40313,0.26875c-0.13437,0.13438 -0.13437,0.13438 -0.26875,0.26875c-0.13437,0.13438 -0.13437,0.26875 -0.26875,0.26875c-0.13437,0.13438 -0.13437,0.26875 -0.26875,0.26875c0,0 0,0 0,0.13438l-50.65938,83.71563c-1.20938,1.88125 -0.5375,4.43438 1.34375,5.50938c0.67188,0.40312 1.34375,0.5375 2.15,0.5375c1.34375,0 2.6875,-0.67187 3.49375,-1.88125l38.83437,-64.09688l-8.86875,44.6125c-0.26875,1.20937 0.13438,2.41875 0.80625,3.35938c0.80625,0.94062 1.88125,1.47812 3.09063,1.47812h18.94687l-35.34063,48.50938l8.46563,-33.72812c0.40313,-2.28438 -0.80625,-4.43438 -3.09062,-4.97188z"></path></g></g></svg>
